<svg width="24" height="24" viewBox="0 0 24 24" fill="none" xmlns="http://www.w3.org/2000/svg">
<path d="M19.4296 3C18.9083 3 18.1816 3.02325 17.4143 3.09375C15.8791 3.237 14.1068 3.495 13.0081 4.59375C12.0856 5.51625 10.1776 7.96575 8.41434 10.266C8.0656 10.7198 8.07984 10.7108 7.75809 11.133L6.46885 11.0625C5.99705 11.0365 5.52582 11.1228 5.09387 11.3143C4.66192 11.5058 4.28157 11.7971 3.9841 12.1643L2.4151 14.085L1.64185 15.0698L2.85985 15.3038L5.32135 15.7965L8.20359 18.6788L8.69635 21.1403L8.95435 22.359L9.91434 21.585L11.8366 20.0153C12.2037 19.7178 12.495 19.3374 12.6865 18.9055C12.8781 18.4735 12.9644 18.0023 12.9383 17.5305L12.8678 16.2645C13.3043 15.9345 13.2901 15.942 13.7588 15.585C16.0643 13.8188 18.5221 11.9228 19.4303 11.0153C20.5201 9.92475 20.7638 8.12625 20.9071 6.585C21.0503 5.0445 20.9776 3.726 20.9776 3.726L20.9536 3.04575L20.2741 3.02325C20.2741 3.02325 19.9508 3 19.4296 3ZM18.7501 4.5C19.0486 4.5 19.2601 4.51725 19.4768 4.52325C19.4851 4.95975 19.5031 5.41425 19.4063 6.4455C19.2743 7.866 18.8408 9.4485 18.3518 9.9375C17.6843 10.605 15.1403 12.63 12.8438 14.391C11.5579 15.3793 10.2689 16.3636 8.97684 17.3438L6.6796 15.0465C6.9871 14.634 8.03935 13.1985 9.58584 11.1795C11.3438 8.889 13.3741 6.33675 14.0626 5.64825C14.5756 5.136 16.1401 4.7025 17.5546 4.5705C17.9519 4.5296 18.3508 4.50608 18.7501 4.5ZM15.3278 7.14825C14.4901 7.14825 13.8278 7.83375 13.8278 8.6715C13.8278 9.51 14.4901 10.1955 15.3278 10.1955C15.7316 10.1945 16.1185 10.0337 16.4041 9.7483C16.6897 9.46287 16.8507 9.07601 16.8518 8.67225C16.8509 8.26836 16.69 7.8813 16.4044 7.59571C16.1188 7.31012 15.7317 7.14924 15.3278 7.14825ZM6.3751 12.5625L6.65635 12.5858C6.20485 13.1835 5.46685 14.1413 5.3671 14.2733L4.35985 14.0625L5.13235 13.125C5.28037 12.9398 5.47015 12.7922 5.68615 12.6945C5.90216 12.5967 6.13825 12.5515 6.3751 12.5625ZM4.66435 16.4535C4.02235 17.0948 3.65635 17.9828 3.39835 18.726C3.1411 19.4708 3.02335 20.0858 3.02335 20.0858L2.7901 21.1875L3.89185 20.9768C3.89185 20.9768 4.48885 20.874 5.22685 20.625C5.9656 20.376 6.85359 20.007 7.5241 19.3358L6.4696 18.2813C6.13585 18.615 5.4736 18.9083 4.87585 19.125C5.1046 18.501 5.43835 17.7923 5.7196 17.508L4.66435 16.4535ZM11.4143 17.3438L11.4376 17.625C11.4535 17.8601 11.4129 18.0955 11.319 18.3116C11.2252 18.5277 11.081 18.7182 10.8983 18.867L9.9376 19.641L9.72684 18.633C9.85884 18.5355 10.8166 17.7923 11.4143 17.3438Z" fill="#110906"/>
</svg>
